<?xml version="1.0" encoding="utf-8"?>
<!-- Generator: Adobe Illustrator 19.0.0, SVG Export Plug-In . SVG Version: 6.00 Build 0)  -->
<svg version="1.1" id="Layer_1" xmlns="http://www.w3.org/2000/svg" xmlns:xlink="http://www.w3.org/1999/xlink" x="0px" y="0px"
	 width="41.7px" height="41.7px" viewBox="0 0 41.7 41.7" style="enable-background:new 0 0 41.7 41.7;" xml:space="preserve">
<style type="text/css">
	.st0{fill:#FFFFFF;}
	.st1{fill:#26D34E;}
</style>
<g id="XMLID_38_">
	<circle id="XMLID_131_" class="st0" cx="20.9" cy="20.9" r="20.9"/>
	<path id="XMLID_130_" class="st1" d="M20.7,19.3c0,0.6-0.5,1.1-1.1,1.1h-7.1c-0.6,0-1.1-0.5-1.1-1.1v-7.1c0-0.6,0.5-1.1,1.1-1.1
		h7.1c0.6,0,1.1,0.5,1.1,1.1L20.7,19.3L20.7,19.3z"/>
	<path id="XMLID_124_" class="st1" d="M30.9,19.3c0,0.6-0.5,1.1-1.1,1.1h-7.1c-0.6,0-1.1-0.5-1.1-1.1v-7.1c0-0.6,0.5-1.1,1.1-1.1
		h7.1c0.6,0,1.1,0.5,1.1,1.1L30.9,19.3L30.9,19.3L30.9,19.3z"/>
	<path id="XMLID_123_" class="st1" d="M20.7,29.5c0,0.6-0.5,1.1-1.1,1.1h-7.1c-0.6,0-1.1-0.5-1.1-1.1v-7.1c0-0.6,0.5-1.1,1.1-1.1
		h7.1c0.6,0,1.1,0.5,1.1,1.1L20.7,29.5L20.7,29.5z"/>
	<path id="XMLID_98_" class="st1" d="M30.9,29.5c0,0.6-0.5,1.1-1.1,1.1h-7.1c-0.6,0-1.1-0.5-1.1-1.1v-7.1c0-0.6,0.5-1.1,1.1-1.1h7.1
		c0.6,0,1.1,0.5,1.1,1.1L30.9,29.5L30.9,29.5L30.9,29.5z"/>
	<g id="XMLID_61_">
		<g id="XMLID_95_">
			<g id="XMLID_96_">
				<path id="XMLID_97_" class="st0" d="M17.8,15.2h-1v-1c0-0.3-0.3-0.6-0.6-0.6l0,0c-0.3,0-0.6,0.3-0.6,0.6v1h-1
					c-0.3,0-0.6,0.3-0.6,0.6c0,0.3,0.3,0.6,0.6,0.6h1v1c0,0.3,0.3,0.6,0.6,0.6l0,0c0.3,0,0.6-0.3,0.6-0.6v-1h1
					c0.3,0,0.6-0.3,0.6-0.6C18.4,15.5,18.1,15.2,17.8,15.2z"/>
			</g>
		</g>
		<g id="XMLID_93_">
			<path id="XMLID_94_" class="st0" d="M27.8,16.5h-3.2c-0.3,0-0.6-0.3-0.6-0.6l0,0c0-0.3,0.3-0.6,0.6-0.6h3.2
				c0.3,0,0.6,0.3,0.6,0.6l0,0C28.4,16.2,28.1,16.5,27.8,16.5z"/>
		</g>
		<g id="XMLID_90_">
			<path id="XMLID_92_" class="st0" d="M17.8,25.1l-2.3,2.3c-0.2,0.2-0.6,0.2-0.9,0l0,0c-0.2-0.2-0.2-0.6,0-0.9l2.3-2.3
				c0.2-0.2,0.6-0.2,0.9,0l0,0C18,24.5,18,24.9,17.8,25.1z"/>
			<path id="XMLID_91_" class="st0" d="M15.5,24.3l2.3,2.3c0.2,0.2,0.2,0.6,0,0.9l0,0c-0.2,0.2-0.6,0.2-0.9,0l-2.3-2.3
				c-0.2-0.2-0.2-0.6,0-0.9l0,0C14.9,24,15.2,24,15.5,24.3z"/>
		</g>
		<g id="XMLID_62_">
			<g id="XMLID_86_">
				<path id="XMLID_87_" class="st0" d="M27.8,26.3h-3.2c-0.3,0-0.6,0.3-0.6,0.6c0,0.3,0.3,0.6,0.6,0.6h3.2c0.3,0,0.6-0.3,0.6-0.6
					C28.4,26.6,28.1,26.3,27.8,26.3z M24.6,25.3h3.2c0.3,0,0.6-0.3,0.6-0.6c0-0.3-0.3-0.6-0.6-0.6h-3.2c-0.3,0-0.6,0.3-0.6,0.6
					C23.9,25,24.2,25.3,24.6,25.3z"/>
			</g>
		</g>
	</g>
</g>
</svg>
