<?xml version="1.0" encoding="utf-8"?>
<!-- Generator: Adobe Illustrator 16.0.0, SVG Export Plug-In . SVG Version: 6.00 Build 0)  -->
<!DOCTYPE svg PUBLIC "-//W3C//DTD SVG 1.1//EN" "http://www.w3.org/Graphics/SVG/1.1/DTD/svg11.dtd">
<svg version="1.1" id="Layer_1" xmlns="http://www.w3.org/2000/svg" xmlns:xlink="http://www.w3.org/1999/xlink" x="0px" y="0px"
	 width="792.192px" height="792.192px" viewBox="200 407.808 792.192 792.192" enable-background="new 200 407.808 792.192 792.192"
	 xml:space="preserve">
<g id="Layer_2">
	<g>
		<circle fill="#26D34E" cx="596.096" cy="803.904" r="396.096"/>
		<path fill="#FFFFFF" d="M583.718,764.863c0,14.725-11.938,26.662-26.663,26.662H381.388c-14.724,0-26.663-11.938-26.663-26.662
			V589.195c0-14.724,11.938-26.663,26.663-26.663h175.675c14.717,0,26.656,11.938,26.656,26.663V764.863z"/>
		<path fill="#FFFFFF" d="M837.467,764.863c0,14.725-11.938,26.662-26.662,26.662H635.137c-14.724,0-26.663-11.938-26.663-26.662
			V589.195c0-14.724,11.938-26.663,26.663-26.663h175.675c14.724,0,26.662,11.938,26.662,26.663v175.668H837.467z"/>
		<path fill="#FFFFFF" d="M583.718,1018.612c0,14.725-11.938,26.663-26.663,26.663H381.388c-14.724,0-26.663-11.938-26.663-26.663
			V842.944c0-14.725,11.938-26.662,26.663-26.662h175.675c14.717,0,26.656,11.938,26.656,26.662V1018.612z"/>
		<path fill="#FFFFFF" d="M837.467,1018.612c0,14.725-11.938,26.663-26.662,26.663H635.137c-14.724,0-26.663-11.938-26.663-26.663
			V842.944c0-14.725,11.938-26.662,26.663-26.662h175.675c14.724,0,26.662,11.938,26.662,26.662v175.668H837.467z"/>
		<g>
			<g>
				<g>
					<path fill="#26D34E" d="M511.839,664.268h-24.441v-24.44c0-8.491-6.944-15.436-15.435-15.436l0,0
						c-8.491,0-15.436,6.944-15.436,15.436v24.44h-24.44c-8.491,0-15.435,6.944-15.435,15.436s6.944,15.436,15.435,15.436h24.44
						v24.44c0,8.491,6.944,15.435,15.436,15.435l0,0c8.491,0,15.435-6.943,15.435-15.435v-24.44h24.441
						c8.491,0,15.435-6.944,15.435-15.436S520.331,664.268,511.839,664.268z"/>
				</g>
			</g>
			<g>
				<path fill="#26D34E" d="M760.111,695.139h-79.758c-8.491,0-15.435-6.944-15.435-15.436l0,0c0-8.491,6.944-15.436,15.435-15.436
					h79.758c8.491,0,15.435,6.944,15.435,15.436l0,0C775.553,688.194,768.603,695.139,760.111,695.139z"/>
			</g>
			<g>
				<path fill="#26D34E" d="M511.071,910.695l-56.4,56.394c-6.003,6.004-15.825,6.004-21.828,0l0,0
					c-6.003-6.003-6.003-15.825,0-21.828l56.394-56.4c6.003-6.004,15.826-6.004,21.83,0l0,0
					C517.075,894.87,517.075,904.691,511.071,910.695z"/>
				<path fill="#26D34E" d="M454.678,888.866l56.4,56.401c6.003,6.003,6.003,15.824,0,21.828l0,0
					c-6.003,6.003-15.825,6.003-21.829,0l-56.395-56.395c-6.003-6.003-6.003-15.825,0-21.829l0,0
					C438.846,882.863,448.674,882.863,454.678,888.866z"/>
			</g>
			<g>
				<g>
					<path fill="#26D34E" d="M760.111,940.724h-79.758c-8.491,0-15.435,6.944-15.435,15.437c0,8.491,6.944,15.435,15.435,15.435
						h79.758c8.491,0,15.435-6.943,15.435-15.435C775.553,947.668,768.603,940.724,760.111,940.724z M680.353,915.237h79.758
						c8.491,0,15.435-6.943,15.435-15.435s-6.944-15.436-15.435-15.436h-79.758c-8.491,0-15.435,6.944-15.435,15.436
						S671.862,915.237,680.353,915.237z"/>
				</g>
			</g>
		</g>
	</g>
</g>
</svg>
